<?xml version="1.0" standalone="no"?>
<!DOCTYPE svg PUBLIC "-//W3C//DTD SVG 20010904//EN"
 "http://www.w3.org/TR/2001/REC-SVG-20010904/DTD/svg10.dtd">
<svg version="1.0" xmlns="http://www.w3.org/2000/svg"
 width="425.000000pt" height="425.000000pt" viewBox="0 0 425.000000 425.000000"
 preserveAspectRatio="xMidYMid meet">
<metadata>
Created by potrace 1.14, written by Peter Selinger 2001-2017
</metadata>
<g transform="translate(0.000000,425.000000) scale(0.100000,-0.100000)"
fill="#000000" stroke="none">
<path d="M1985 4244 c-173 -21 -223 -28 -302 -45 -51 -11 -145 -38 -210 -60
-65 -22 -127 -43 -138 -46 -47 -14 -314 -158 -389 -210 -380 -265 -642 -598
-802 -1017 -40 -104 -88 -283 -110 -411 -22 -123 -27 -470 -9 -595 38 -268 94
-447 217 -694 27 -55 58 -112 69 -127 10 -15 19 -30 19 -33 0 -15 148 -210
215 -285 79 -86 201 -203 261 -250 233 -182 496 -317 754 -387 105 -28 152
-38 250 -53 129 -19 177 -23 312 -23 136 0 213 5 318 22 30 5 71 11 90 14 19
3 91 21 160 41 69 19 130 37 135 38 66 18 287 124 395 189 36 21 74 44 85 51
11 7 22 15 25 18 3 3 21 16 41 30 129 87 398 357 473 474 11 17 27 35 35 42 9
7 13 13 8 13 -4 0 8 21 26 47 42 61 146 249 148 268 0 2 11 30 25 62 41 91 80
217 119 378 3 11 8 40 11 65 3 25 8 47 9 50 25 42 25 560 0 632 -2 7 -6 31 -9
53 -16 145 -124 461 -213 618 -18 33 -33 61 -33 64 0 7 -162 246 -179 264 -9
9 -40 44 -70 78 -69 79 -206 211 -278 268 -15 13 -53 41 -83 63 -30 21 -60 44
-67 50 -7 5 -15 10 -19 10 -4 0 -22 11 -40 25 -18 14 -35 25 -37 25 -2 0 -36
17 -75 39 -184 101 -447 189 -667 222 -38 6 -81 13 -95 15 -33 6 -336 12 -375
8z"/>
</g>
</svg>
